HIERARCHY
ROOT Hips
{
  OFFSET 0 0 0
  CHANNELS 6 Xposition Yposition Zposition Zrotation Yrotation Xrotation
  JOINT LeftThigh
  {
    OFFSET 8.409438 0 -5.917753
    CHANNELS 3 Zrotation Yrotation Xrotation
    JOINT LeftLeg
    {
      OFFSET 0 0 -42.358652
      CHANNELS 3 Zrotation Yrotation Xrotation
      JOINT LeftFoot
      {
        OFFSET 0 0 -39.357303
        CHANNELS 3 Zrotation Yrotation Xrotation
      }
    }
  }
  JOINT RightThigh
  {
    OFFSET -8.409438 0 -5.917753
    CHANNELS 3 Zrotation Yrotation Xrotation
    JOINT RightLeg
    {
      OFFSET 0 0 -42.358652
      CHANNELS 3 Zrotation Yrotation Xrotation
      JOINT RightFoot
      {
        OFFSET 0 0 -39.357303
        CHANNELS 3 Zrotation Yrotation Xrotation
      }
    }
  }
  JOINT SpineLow
  {
    OFFSET 0 0 4.719101
    CHANNELS 3 Zrotation Yrotation Xrotation
    JOINT SpineMid
    {
      OFFSET 0 0 12.899191
      CHANNELS 3 Zrotation Yrotation Xrotation
      JOINT Chest
      {
        OFFSET 0 0 12.899191
        CHANNELS 3 Zrotation Yrotation Xrotation
        JOINT LeftShoulder
        {
          OFFSET 7.550562 1.41573 9.438202
          CHANNELS 3 Zrotation Yrotation Xrotation
          JOINT LeftArm
          {
            OFFSET 9.155056 0 4.247191
            CHANNELS 3 Zrotation Yrotation Xrotation
            JOINT LeftForearm
            {
              OFFSET 0 0 25.771955
              CHANNELS 3 Zrotation Yrotation Xrotation
              JOINT LeftHand
              {
                OFFSET 0 0 25.197169
                CHANNELS 3 Zrotation Yrotation Xrotation
              }
            }
          }
        }
        JOINT RightShoulder
        {
          OFFSET -7.550562 1.41573 9.438202
          CHANNELS 3 Zrotation Yrotation Xrotation
          JOINT RightArm
          {
            OFFSET -9.155056 0 4.247191
            CHANNELS 3 Zrotation Yrotation Xrotation
            JOINT RightForearm
            {
              OFFSET 0 0 -25.771955
              CHANNELS 3 Zrotation Yrotation Xrotation
              JOINT RightHand
              {
                OFFSET 0 0 -25.197169
                CHANNELS 3 Zrotation Yrotation Xrotation
              }
            }
          }
        }
        JOINT Neck
        {
          OFFSET 0 0 15.101124
          CHANNELS 3 Zrotation Yrotation Xrotation
          JOINT Head
          {
            OFFSET 0 0 11.325843
            CHANNELS 3 Zrotation Yrotation Xrotation
            End Site
            {
              OFFSET 0 0 14.157303
            }
          }
        }
      }
    }
  }
}
MOTION
Frames: 11
Frame Time: 0.0
0.0  101.685394  0.0  2.370698  15.194841  -101.737302  36.31845  -32.34168  25.961897  -18.271754  7.173263  23.12594  -10.707923  -4.608724  -8.983221  -11.450187  2.539574  -34.749889  3.501492  7.286585  55.248331  16.462036  3.7001  4.737716  -1.281131  1.216431  3.061312  -3.344305  3.479918  8.307654  -3.344304  3.479917  8.307654  -11.416415  27.238032  3.319925  153.722897  68.791902  -147.227964  -36.726931  -35.423398  88.388291  42.559228  -20.393732  9.543779  14.77876  -10.187118  17.857274  75.699348  45.000502  25.451157  -42.424752  20.567118  -103.800856  73.38055  15.039721  20.239945  2.46918  -2.268636  -1.073374  1.847664  -1.705853  -0.795771  
0.0  101.685394  0.0  2.429542  15.425158  -101.640881  36.000084  -31.983343  25.951188  -18.059131  7.080798  23.069996  -10.642036  -4.530822  -8.864902  -12.03693  2.404544  -34.84648  3.520627  7.649747  54.95851  16.366431  3.626867  4.671492  -1.293841  1.212459  3.055062  -3.379837  3.47036  8.290042  -3.379837  3.470361  8.290043  -11.386066  27.368204  3.417184  153.651771  68.905687  -147.354324  -36.662716  -35.128327  88.143728  42.595334  -20.118496  9.979183  14.733838  -10.141604  18.005244  75.817872  45.252498  25.633452  -42.368382  20.569481  -103.681399  73.350856  15.035821  19.925349  2.372958  -2.23352  -0.958378  1.775994  -1.678895  -0.710029  
0.0  101.685394  0.0  2.428373  15.655766  -101.584386  35.625662  -31.609253  25.773805  -17.846996  6.942414  23.130276  -10.384345  -4.311633  -8.645555  -12.456331  2.23584  -34.780841  3.458257  8.097023  54.569169  16.380028  3.472322  4.516798  -1.34035  1.207796  3.044487  -3.50799  3.46289  8.258815  -3.50799  3.46289  8.258815  -11.192597  27.444528  3.579259  153.918769  68.827441  -147.296819  -36.715082  -34.809798  88.108636  42.591373  -19.792647  10.454885  14.721745  -10.109876  18.099809  76.614673  45.227614  26.168462  -42.807486  20.762372  -103.353945  73.565236  15.067954  19.445716  2.408161  -2.188896  -0.85865  1.802829  -1.645089  -0.635292  
0.0  101.685394  0.0  2.469003  15.910577  -101.494161  35.260172  -31.253693  25.722424  -17.603544  6.852569  23.165227  -10.297407  -4.229681  -8.522458  -12.770239  2.184723  -34.664359  3.342253  8.547078  54.108388  16.427123  3.275175  4.270999  -1.361382  1.203366  3.051823  -3.565568  3.453797  8.277943  -3.565568  3.453798  8.277943  -11.191239  27.475231  3.65872  153.847228  68.811905  -147.45685  -36.862097  -34.543659  88.160839  42.5294  -19.486645  10.79929  14.620498  -10.028406  18.204467  76.72159  45.490451  26.28856  -42.852147  20.913066  -103.180941  73.602035  14.955517  18.961195  2.334567  -2.156963  -0.842881  1.747746  -1.620973  -0.623854  
0.0  101.685394  0.0  2.387905  15.943039  -101.564  35.162332  -31.118788  25.600363  -17.390263  6.718096  23.262693  -10.080299  -3.999485  -8.330173  -12.667205  2.056755  -34.270077  3.111672  9.067712  53.555601  16.48861  3.090416  3.925346  -1.408611  1.191206  3.047174  -3.696271  3.426249  8.263262  -3.696271  3.426249  8.263262  -10.999054  27.404556  3.851275  153.801068  68.512708  -147.512561  -37.098712  -34.658381  88.195687  42.62126  -19.233331  10.959485  14.641981  -9.970319  18.354658  77.641345  45.386109  26.807364  -43.470499  21.274515  -102.820852  74.00019  14.751184  18.37824  2.454258  -2.098089  -0.800011  1.837744  -1.576812  -0.591524  
0.0  101.685394  0.0  2.3783  16.151199  -101.448171  35.036651  -30.988897  25.506502  -17.460087  6.707036  23.112632  -9.975087  -3.918951  -8.226064  -12.585044  2.063624  -33.969589  2.766953  9.580571  52.950173  16.561548  2.932028  3.453647  -1.443495  1.178348  3.033472  -3.793822  3.394742  8.224555  -3.793822  3.394742  8.224555  -10.812021  27.427119  4.051983  153.467675  68.431622  -147.863565  -37.401044  -34.633334  88.374152  42.699443  -19.140364  11.006393  14.625867  -9.884049  18.538795  77.491701  45.612726  26.786077  -43.575863  21.561316  -102.675465  74.038821  14.525827  17.481396  2.44164  -2.073212  -0.789403  1.828355  -1.558095  -0.583713  
0.0  101.685394  0.0  2.30286  16.135997  -101.443815  35.312831  -31.066936  25.416564  -17.653248  6.657512  22.984471  -9.788848  -3.774562  -8.143124  -12.301768  2.03655  -33.516484  2.325693  10.074219  52.317941  16.895398  2.861207  2.961788  -1.534651  1.16983  2.992277  -4.045973  3.380311  8.107511  -4.045973  3.380311  8.10751  -10.05016  27.495466  4.431203  152.558079  68.302452  -148.466707  -37.787993  -34.81303  88.490034  43.12417  -19.04652  10.781151  14.957157  -9.799595  18.821528  78.022011  45.492563  27.095065  -44.411748  22.126521  -102.161971  73.828781  14.595637  16.066615  2.674511  -2.02439  -0.720823  2.003289  -1.521484  -0.531711  
0.0  101.685394  0.0  2.280421  16.204505  -101.153977  35.631271  -31.08295  25.125947  -17.985217  6.705236  22.653815  -9.711322  -3.703166  -8.034451  -11.977542  1.948715  -33.192224  1.679209  10.678022  51.619379  17.508094  2.85778  2.401987  -1.567749  1.151832  2.94366  -4.141048  3.332283  7.973801  -4.141048  3.332283  7.973801  -9.765578  27.582541  4.594147  151.99173  68.272823  -149.035098  -38.119506  -34.848606  88.703641  43.274418  -19.110577  10.704292  15.06765  -9.734694  18.968508  77.548578  45.643343  26.951386  -44.475928  22.457005  -102.051373  73.838265  14.379432  14.867927  2.706334  -2.016234  -0.720356  2.027167  -1.515403  -0.531292  
0.0  101.685394  0.0  2.182528  16.443713  -100.764996  35.714649  -30.954301  24.583752  -18.193897  6.688573  22.422133  -9.599107  -3.515641  -7.866505  -11.873845  1.672503  -32.964887  1.035426  11.281596  50.993586  18.229391  2.857108  1.963252  -1.677483  1.131396  2.85848  -4.447531  3.28407  7.736369  -4.447531  3.28407  7.73637  -9.273209  27.708281  4.791837  150.03689  68.285097  -150.170949  -38.562481  -35.549308  88.399553  43.345893  -19.21765  10.617979  15.304147  -9.737543  19.092653  77.699717  45.488306  27.263209  -45.181432  22.953979  -101.636489  74.052153  14.290832  13.45782  2.871568  -2.00648  -0.704595  2.151145  -1.508212  -0.518975  
0.0  101.685394  0.0  2.16746  16.469175  -100.485053  36.06617  -31.033909  24.356328  -18.359528  6.671705  22.053682  -9.750284  -3.446232  -7.757319  -11.402287  1.275061  -32.790478  0.664373  12.050936  50.673485  18.695729  2.855167  1.66339  -1.699183  1.117636  2.830545  -4.509783  3.247192  7.659709  -4.509784  3.247192  7.659709  -9.134021  27.872161  4.760804  149.383653  68.422466  -150.818871  -38.788332  -35.619324  88.485126  43.290395  -19.385875  10.660125  15.373884  -9.73183  19.093767  77.109946  45.597419  27.138315  -45.258556  23.245541  -101.556761  74.056244  14.091015  12.110286  2.882415  -2.020822  -0.816716  2.15889  -1.519511  -0.602955  
0.0  101.685394  0.0  2.09569  16.388695  -100.355475  36.126657  -30.967105  23.845875  -18.33644  6.620325  22.000484  -9.758028  -3.228229  -7.526567  -10.260312  1.237132  -32.923829  0.326689  12.534018  50.812937  18.900364  2.675726  1.714763  -1.743131  1.107223  2.814802  -4.63178  3.222757  7.615076  -4.63178  3.222757  7.615076  -9.115044  27.93363  4.642164  148.898037  68.506564  -151.312221  -39.004165  -35.799049  88.403483  43.203004  -19.543947  10.753522  15.472977  -9.71122  19.048728  76.955643  45.499571  27.252177  -45.7243  23.603304  -101.317826  74.322032  13.913698  10.66932  2.960337  -2.029145  -0.950729  2.216869  -1.52651  -0.703158  
